<svg xmlns="http://www.w3.org/2000/svg" width="42" height="42" viewBox="0 0 42 42">
    <defs>
        <linearGradient id="ozlgnayota" x1="50.001%" x2="50.001%" y1="11.852%" y2="73.575%">
            <stop offset="0%" stop-color="#F0D25A"/>
            <stop offset="99.93%" stop-color="#F09E19"/>
        </linearGradient>
        <linearGradient id="hka0lguukb" x1="49.995%" x2="49.995%" y1="105.199%" y2="27.058%">
            <stop offset="0%" stop-color="#A7E3FF"/>
            <stop offset="99.74%" stop-color="#0095DA"/>
        </linearGradient>
    </defs>
    <g fill="none" fill-rule="evenodd">
        <g>
            <path d="M0.235 0.921H47.004V47.69H0.235z" transform="translate(-3 -3)"/>
            <g fill-rule="nonzero" transform="translate(-3 -3) translate(2.462 3.692)">
                <circle cx="21.158" cy="20.618" r="20.454" fill="#DAF3FF"/>
                <circle cx="21.158" cy="20.618" r="16.558" fill="#FFF"/>
                <g>
                    <path fill="url(#ozlgnayota)" d="M20.818 2.27c-.488 6.242-2.359 12.292-5.472 17.7l-1.05 1.826c-.617 1.074-1.752 1.735-2.98 1.735H2.784c-1.417 0-2.355-1.492-1.755-2.793C4.63 12.913 10.133 6.144 17.022 1.063l.727-.536c1.338-.986 3.201.071 3.07 1.743z" transform="translate(8.615)"/>
                    <path fill="url(#hka0lguukb)" d="M4.268 38.948c.489-6.243 2.357-12.293 5.469-17.701l1.05-1.825c.617-1.075 1.75-1.736 2.978-1.736h8.528c1.415 0 2.352 1.492 1.754 2.793-3.6 7.825-9.1 14.594-15.983 19.675l-.727.536c-1.338.986-3.2-.07-3.069-1.742z" transform="translate(8.615)"/>
                </g>
                <path fill="#6A52EB" d="M24.297 23.532c2.699 0 4.427 2.597 3.747 4.96 1.766-2.515 3.32-5.192 4.617-8.013.598-1.301-.337-2.793-1.754-2.793H18.007c-2.695 0-4.423-2.59-3.75-4.951-1.765 2.514-3.317 5.187-4.614 8.005-.6 1.3.339 2.792 1.755 2.792h12.898z"/>
            </g>
        </g>
    </g>
</svg>
