<svg xmlns="http://www.w3.org/2000/svg" width="14" height="13"><g fill="none" fill-rule="evenodd"><path fill="#74D3FF" d="M13 9.4h-2v-6h2c.6 0 1 .5 1 1v4a1 1 0 0 1-1 1m-12 0h1.7l.3-6H1a1 1 0 0 0-1 1v4c0 .6.4 1 1 1"/><path fill="#FFF" d="M11 11.8H8.7c-.4 0-.7-.3-.7-.7 0-.4.3-.7.7-.7h2v-5c0-2.2-1.7-4-3.7-4s-3.7 1.8-3.7 4v2.9c0 .4-.3.7-.6.7-.4 0-.7-.3-.7-.7V5.4C2 2.4 4.2 0 7 0s5 2.4 5 5.4v5.3c0 .6-.5 1.1-1 1.1"/><path fill="#FFF" d="M3.3 6.4v2.4c0 .3-.3.6-.6.6-.4 0-.7-.3-.7-.6V6.4"/><path fill="#74D3FF" d="M8.5 12.4h-1a1.5 1.5 0 1 1 0-3h1a1.5 1.5 0 1 1 0 3"/></g></svg>